<svg xmlns="http://www.w3.org/2000/svg" viewBox="0 0 64 64" fill="none">
  <defs>
    <linearGradient id="titan-mark-gradient" x1="18" y1="8" x2="47" y2="48" gradientUnits="userSpaceOnUse">
      <stop offset="0" stop-color="#8fc4ff"/>
      <stop offset="0.5" stop-color="#63a6ff"/>
      <stop offset="1" stop-color="#245cff"/>
    </linearGradient>
    <linearGradient id="titan-mark-sheen" x1="24" y1="12" x2="41" y2="42" gradientUnits="userSpaceOnUse">
      <stop stop-color="#ffffff" stop-opacity="0.34"/>
      <stop offset="1" stop-color="#ffffff" stop-opacity="0"/>
    </linearGradient>
    <mask id="titan-mark-cutout" maskUnits="userSpaceOnUse" x="0" y="0" width="64" height="64">
      <rect width="64" height="64" fill="#ffffff"/>
      <path
        fill="#000000"
        d="M24.5 18C23.4 18 22.5 18.9 22.5 20V22.8C22.5 23.9 23.4 24.8 24.5 24.8H29.8V37.7C29.8 39.2 31.5 40 32.6 39.2L35.5 36.9C36.1 36.5 36.4 35.9 36.4 35.2V24.8H39.5C40.6 24.8 41.5 23.9 41.5 22.8V20C41.5 18.9 40.6 18 39.5 18H24.5Z"
      />
    </mask>
  </defs>
  <path
    d="M18 10C18 7.79 19.79 6 22 6H42C44.21 6 46 7.79 46 10V36.2C46 37.47 45.41 38.68 44.4 39.43L33.8 47.38C32.73 48.18 31.27 48.18 30.2 47.38L19.6 39.43C18.59 38.68 18 37.47 18 36.2V10Z"
    fill="url(#titan-mark-gradient)"
    mask="url(#titan-mark-cutout)"
  />
  <path
    d="M22 7H42C44.21 7 46 8.79 46 11V15C40.4 17.8 33.9 19.2 26.5 19.2C23.6 19.2 20.8 19 18 18.4V11C18 8.79 19.79 7 22 7Z"
    fill="url(#titan-mark-sheen)"
  />
</svg>
