<svg xmlns="http://www.w3.org/2000/svg">
  <symbol id="icon-telegram" viewBox="0 0 24 24">
    <path d="M20.45 4.13 3.8 10.55c-1.14.46-1.13 1.1-.2 1.38l4.27 1.33 1.65 5.22c.2.56.1.78.7.78.46 0 .67-.2.92-.44l2.08-2.02 4.33 3.2c.8.44 1.37.22 1.57-.74l2.84-13.4c.29-1.18-.45-1.72-1.31-1.33Z"/>
  </symbol>
  <symbol id="icon-vk" viewBox="0 0 24 24">
    <path d="M4.76 7.7c.12 5.84 3.03 9.37 8.14 9.37h.31v-3.34c1.86.18 3.26 1.53 3.83 3.34H19.7c-.73-2.65-2.64-4.12-3.84-4.69 1.2-.69 2.88-2.38 3.28-4.68h-2.42c-.53 1.87-2.08 3.56-3.51 3.72V7.7h-2.42v6.54c-1.45-.36-3.28-2.17-3.36-6.54H4.76Z"/>
  </symbol>
  <symbol id="icon-instagram" viewBox="0 0 24 24">
    <path d="M7.5 3h9A4.5 4.5 0 0 1 21 7.5v9a4.5 4.5 0 0 1-4.5 4.5h-9A4.5 4.5 0 0 1 3 16.5v-9A4.5 4.5 0 0 1 7.5 3Zm0 1.8A2.7 2.7 0 0 0 4.8 7.5v9a2.7 2.7 0 0 0 2.7 2.7h9a2.7 2.7 0 0 0 2.7-2.7v-9a2.7 2.7 0 0 0-2.7-2.7h-9Zm9.9 1.35a1.05 1.05 0 1 1 0 2.1 1.05 1.05 0 0 1 0-2.1ZM12 7.35A4.65 4.65 0 1 1 7.35 12 4.65 4.65 0 0 1 12 7.35Zm0 1.8A2.85 2.85 0 1 0 14.85 12 2.85 2.85 0 0 0 12 9.15Z"/>
  </symbol>
</svg>
